<?xml version="1.0" encoding="utf-8"?>
<!-- Generator: Adobe Illustrator 25.3.0, SVG Export Plug-In . SVG Version: 6.00 Build 0)  -->
<svg version="1.1" xmlns="http://www.w3.org/2000/svg" xmlns:xlink="http://www.w3.org/1999/xlink" x="0px" y="0px"
	 viewBox="0 0 100 100" style="enable-background:new 0 0 100 100;" xml:space="preserve">
<style type="text/css">
	.st0{display:none;}
	.st1{display:inline;}
	.st2{fill:#CC071E;}
	.st3{fill:#000333;}
</style>
<g id="Layer_1" class="st0">
	<g class="st1">
		<path class="st2" d="M50,85c-19.3,0-35-15.7-35-35s15.7-35,35-35c19.3,0,35,15.7,35,35S69.3,85,50,85z M50,16.16
			c-18.66,0-33.84,15.18-33.84,33.84c0,18.66,15.18,33.84,33.84,33.84S83.84,68.66,83.84,50C83.84,31.34,68.66,16.16,50,16.16z"/>
	</g>
	<g class="st1">
		<g>
			<path class="st2" d="M67.4,50.58c-0.14,0-0.28-0.05-0.39-0.15L50.58,35.48c-0.24-0.22-0.25-0.58-0.04-0.82
				c0.22-0.24,0.58-0.25,0.82-0.04l16.43,14.95c0.24,0.22,0.25,0.58,0.04,0.82C67.71,50.52,67.55,50.58,67.4,50.58z"/>
		</g>
		<g>
			<path class="st2" d="M50.97,65.53c-0.16,0-0.31-0.06-0.43-0.19c-0.22-0.24-0.2-0.6,0.04-0.82l16.43-14.95
				c0.24-0.22,0.6-0.2,0.82,0.04c0.22,0.24,0.2,0.6-0.04,0.82L51.36,65.38C51.25,65.48,51.11,65.53,50.97,65.53z"/>
		</g>
		<g>
			<path class="st2" d="M67.4,50.58H32.6c-0.32,0-0.58-0.26-0.58-0.58c0-0.32,0.26-0.58,0.58-0.58H67.4c0.32,0,0.58,0.26,0.58,0.58
				C67.98,50.32,67.71,50.58,67.4,50.58z"/>
		</g>
	</g>
</g>
<g id="Layer_2">
	<g>
		<g>
			<path class="st3" d="M65.09,50.5c-0.12,0-0.24-0.04-0.34-0.13L50.5,37.4c-0.21-0.19-0.22-0.5-0.03-0.71
				c0.19-0.21,0.51-0.22,0.71-0.03l14.25,12.97c0.21,0.19,0.22,0.5,0.03,0.71C65.37,50.45,65.23,50.5,65.09,50.5z"/>
		</g>
		<g>
			<path class="st3" d="M50.84,63.47c-0.14,0-0.27-0.06-0.37-0.17c-0.19-0.2-0.17-0.52,0.03-0.71l14.25-12.97
				c0.2-0.19,0.52-0.17,0.71,0.03c0.19,0.21,0.17,0.52-0.03,0.71L51.18,63.34C51.08,63.43,50.96,63.47,50.84,63.47z"/>
		</g>
		<g>
			<path class="st3" d="M65.09,50.5H34.91c-0.28,0-0.5-0.22-0.5-0.5c0-0.28,0.22-0.5,0.5-0.5h30.19c0.28,0,0.5,0.22,0.5,0.5
				C65.6,50.28,65.37,50.5,65.09,50.5z"/>
		</g>
	</g>
</g>
</svg>
