<svg id="Layer_1" data-name="Layer 1" xmlns="http://www.w3.org/2000/svg" viewBox="0 0 154.96 154.96"><defs><style>.cls-1{fill:#cc071e;}</style></defs><path class="cls-1" d="M98,177.05a77.48,77.48,0,1,1,77.48-77.47A77.56,77.56,0,0,1,98,177.05ZM98,24.66A74.92,74.92,0,1,0,173,99.58,75,75,0,0,0,98,24.66Z" transform="translate(-20.56 -22.1)"/><path class="cls-1" d="M136.55,100.86a1.29,1.29,0,0,1-.86-.33L99.32,67.44a1.28,1.28,0,0,1,1.73-1.9l36.37,33.09a1.28,1.28,0,0,1-.87,2.23Z" transform="translate(-20.56 -22.1)"/><path class="cls-1" d="M100.19,134a1.27,1.27,0,0,1-1-.42,1.28,1.28,0,0,1,.08-1.81l36.37-33.09a1.28,1.28,0,0,1,1.73,1.9l-36.37,33.09A1.31,1.31,0,0,1,100.19,134Z" transform="translate(-20.56 -22.1)"/><path class="cls-1" d="M136.55,100.86h-77a1.29,1.29,0,1,1,0-2.57h77a1.29,1.29,0,1,1,0,2.57Z" transform="translate(-20.56 -22.1)"/></svg>