<svg id="Layer_1" data-name="Layer 1" xmlns="http://www.w3.org/2000/svg" viewBox="0 0 154.96 154.96"><defs><style>.cls-1{fill:#cc071e;}</style></defs><path class="cls-1" d="M98,22.1A77.48,77.48,0,1,1,20.56,99.57,77.56,77.56,0,0,1,98,22.1Zm0,152.39A74.92,74.92,0,1,0,23.13,99.57,75,75,0,0,0,98,174.49Z" transform="translate(-20.56 -22.1)"/><path class="cls-1" d="M59.53,98.29a1.27,1.27,0,0,1,.86.33l36.37,33.09a1.28,1.28,0,1,1-1.73,1.9L58.67,100.52a1.28,1.28,0,0,1-.09-1.81A1.27,1.27,0,0,1,59.53,98.29Z" transform="translate(-20.56 -22.1)"/><path class="cls-1" d="M95.9,65.2a1.27,1.27,0,0,1,.95.42,1.28,1.28,0,0,1-.09,1.81L60.39,100.52a1.28,1.28,0,1,1-1.72-1.9L95,65.53A1.31,1.31,0,0,1,95.9,65.2Z" transform="translate(-20.56 -22.1)"/><path class="cls-1" d="M59.53,98.29h77a1.29,1.29,0,0,1,0,2.57h-77a1.29,1.29,0,0,1,0-2.57Z" transform="translate(-20.56 -22.1)"/></svg>