<?xml version="1.0" encoding="utf-8"?>
<!-- Generator: Adobe Illustrator 25.3.0, SVG Export Plug-In . SVG Version: 6.00 Build 0)  -->
<svg version="1.1" xmlns="http://www.w3.org/2000/svg" xmlns:xlink="http://www.w3.org/1999/xlink" x="0px" y="0px"
	 viewBox="0 0 196.09 199.15" style="enable-background:new 0 0 196.09 199.15;" xml:space="preserve">
<style type="text/css">
	.st0{display:none;}
	.st1{display:inline;}
	.st2{fill:#CC071E;}
	.st3{fill:#35332B;stroke:#35332B;stroke-width:5;stroke-miterlimit:10;}
	.st4{fill:#E6F0EF;stroke:#E6F0EF;stroke-width:20;stroke-miterlimit:10;}
</style>
<g id="Layer_1" class="st0">
	<g class="st1">
		<g>
			<path class="st2" d="M63.25,100.74c-0.3,0-0.59-0.11-0.82-0.33c-0.46-0.45-0.46-1.19-0.01-1.65L132,28.17
				c0.45-0.46,1.19-0.46,1.65-0.01c0.46,0.45,0.46,1.19,0.01,1.65l-69.58,70.59C63.85,100.62,63.55,100.74,63.25,100.74z"/>
		</g>
		<g>
			<path class="st2" d="M132.83,171.33c-0.3,0-0.6-0.12-0.83-0.35l-69.58-70.59c-0.46-0.46-0.45-1.19,0.01-1.65
				c0.46-0.45,1.2-0.44,1.65,0.01l69.58,70.59c0.46,0.46,0.45,1.19-0.01,1.65C133.42,171.21,133.13,171.33,132.83,171.33z"/>
		</g>
	</g>
</g>
<g id="Layer_2" class="st0">
	<g class="st1">
		<g>
			<path class="st3" d="M132.83,98.41c0.3,0,0.59,0.11,0.82,0.33c0.46,0.45,0.46,1.19,0.01,1.65l-69.58,70.59
				c-0.45,0.46-1.19,0.46-1.65,0.01c-0.46-0.45-0.46-1.19-0.01-1.65L132,98.76C132.23,98.53,132.53,98.41,132.83,98.41z"/>
		</g>
		<g>
			<path class="st3" d="M63.25,27.82c0.3,0,0.6,0.12,0.83,0.35l69.58,70.59c0.46,0.46,0.45,1.19-0.01,1.65
				c-0.46,0.45-1.2,0.44-1.65-0.01L62.42,29.81c-0.46-0.46-0.45-1.19,0.01-1.65C62.66,27.93,62.96,27.82,63.25,27.82z"/>
		</g>
	</g>
</g>
<g id="Layer_3">
	<g>
		<g>
			<path class="st4" d="M63.25,100.74c-0.3,0-0.59-0.11-0.82-0.33c-0.46-0.45-0.46-1.19-0.01-1.65L132,28.17
				c0.45-0.46,1.19-0.46,1.65-0.01c0.46,0.45,0.46,1.19,0.01,1.65l-69.58,70.59C63.85,100.62,63.55,100.74,63.25,100.74z"/>
		</g>
		<g>
			<path class="st4" d="M132.83,171.33c-0.3,0-0.6-0.12-0.83-0.35l-69.58-70.59c-0.46-0.46-0.45-1.19,0.01-1.65
				c0.46-0.45,1.2-0.44,1.65,0.01l69.58,70.59c0.46,0.46,0.45,1.19-0.01,1.65C133.42,171.21,133.13,171.33,132.83,171.33z"/>
		</g>
	</g>
</g>
</svg>
