<svg id="Layer_2" data-name="Layer 2" xmlns="http://www.w3.org/2000/svg" viewBox="0 0 76.91 148.5"><defs><style>.cls-1{fill:#35332b;stroke:#35332b;stroke-miterlimit:10;stroke-width:5px;}</style></defs><path class="cls-1" d="M132.83,98.41a1.16,1.16,0,0,1,.83,2L64.08,171a1.17,1.17,0,1,1-1.66-1.64L132,98.76A1.18,1.18,0,0,1,132.83,98.41Z" transform="translate(-59.59 -25.32)"/><path class="cls-1" d="M63.25,27.82a1.18,1.18,0,0,1,.83.35l69.58,70.59a1.16,1.16,0,0,1,0,1.65,1.18,1.18,0,0,1-1.65,0L62.42,29.81a1.18,1.18,0,0,1,0-1.65A1.16,1.16,0,0,1,63.25,27.82Z" transform="translate(-59.59 -25.32)"/></svg>