<svg id="Layer_1" data-name="Layer 1" xmlns="http://www.w3.org/2000/svg" viewBox="0 0 71.91 143.5"><defs><style>.cls-1{fill:#cc071e;}</style></defs><path class="cls-1" d="M132.83,98.41a1.17,1.17,0,0,1,.82.33,1.16,1.16,0,0,1,0,1.65L64.08,171a1.17,1.17,0,1,1-1.66-1.64L132,98.76A1.18,1.18,0,0,1,132.83,98.41Z" transform="translate(-62.09 -27.82)"/><path class="cls-1" d="M63.25,27.82a1.18,1.18,0,0,1,.83.35l69.58,70.59a1.16,1.16,0,0,1,0,1.65,1.18,1.18,0,0,1-1.65,0L62.42,29.81a1.18,1.18,0,0,1,0-1.65A1.16,1.16,0,0,1,63.25,27.82Z" transform="translate(-62.09 -27.82)"/></svg>