<?xml version="1.0" encoding="utf-8"?>
<!-- Generator: Adobe Illustrator 25.3.0, SVG Export Plug-In . SVG Version: 6.00 Build 0)  -->
<svg version="1.1" xmlns="http://www.w3.org/2000/svg" xmlns:xlink="http://www.w3.org/1999/xlink" x="0px" y="0px"
	 viewBox="0 0 50 50" style="enable-background:new 0 0 50 50;" xml:space="preserve">
<style type="text/css">
	.st0{display:none;}
	.st1{display:inline;}
	.st2{fill:#000333;}
	.st3{fill:none;stroke:#E30613;stroke-linecap:round;stroke-linejoin:round;stroke-miterlimit:10;}
</style>
<g id="Layer_1" class="st0">
	<g class="st1">
		<g>
			<path class="st2" d="M25.3,34.11c0,0.08-0.03,0.15-0.09,0.21c-0.12,0.12-0.31,0.12-0.43,0L6.3,16.11c-0.12-0.12-0.12-0.31,0-0.43
				c0.12-0.12,0.31-0.12,0.43,0l18.48,18.22C25.27,33.95,25.3,34.03,25.3,34.11z"/>
		</g>
		<g>
			<path class="st2" d="M43.79,15.89c0,0.08-0.03,0.16-0.09,0.22L25.21,34.33c-0.12,0.12-0.31,0.12-0.43,0
				c-0.12-0.12-0.12-0.31,0-0.43l18.48-18.22c0.12-0.12,0.31-0.12,0.43,0C43.76,15.74,43.79,15.81,43.79,15.89z"/>
		</g>
	</g>
</g>
<g id="Layer_2">
	<line class="st3" x1="25" y1="34.15" x2="43.7" y2="15.68"/>
	<line class="st3" x1="25" y1="34.15" x2="6.53" y2="15.45"/>
</g>
</svg>
